<svg xmlns="http://www.w3.org/2000/svg" enable-background="new 0 0 1024 1024" viewBox="0 0 1024 1024"><path d="M813.7,184c0,20.2,0,40.4,0,60.6c0,32.2,0,64.4,0,96.5c0,7.4,0,14.7,0,22.1c6.7-6.7,13.3-13.3,20-20
				c-12,0-24,0-36,0c-30.8,0-61.5,0-92.3,0c-41.6,0-83.2,0-124.8,0c-44.6,0-89.1,0-133.7,0c-39.6,0-79.2,0-118.9,0
				c-26.8,0-53.6,0-80.3,0c-6.1,0-12.2,0-18.3,0c-21.1,0-41.4,10-51.8,28.9c-7,12.6-7.3,25.7-7.3,39.4c0,14.3,0,28.6,0,42.9
				c0,42.8,0,85.5,0,128.3c0,31.1,0,62.1,0,93.2c0,1.6,0,3.3,0,4.9c6.7-6.7,13.3-13.3,20-20c-24.1,0-48.2,0-72.2,0
				c-5.1,0-10.2,0-15.3,0c-0.8,0-1.7,0-2.5,0c-0.3,0-4.2,0-4.2-0.2c0.9,0.1,1.8,0.2,2.7,0.3c-0.9-0.2-1.7-0.4-2.6-0.6
				c-0.8-0.2-1.7-0.5-2.5-0.8c-2-0.8-1.6-0.6,1.1,0.6c0,0.1-3.2-1.7-3.4-1.8c-4.1-2.4,0,0.1-0.2,0.2c-0.2,0.2-5.6-5.2-5.4-5.4
				c0.5-0.5,2.4,3.7,0.9,0.9c-0.6-1.1-1.3-2.3-1.9-3.4c-2.2-3.8,1.1,4.2,0,0c-0.1-0.4-1.5-5.1-1.3-5.1c0.1,0.9,0.2,1.8,0.3,2.7
				c-0.1-0.9-0.2-1.8-0.2-2.7c-0.1-1.7,0-0.9,0-1.4c0-0.1,0-0.1,0-0.2c0-0.3,0-0.6,0-1c-0.2-34.6,0-69.3,0-103.9
				c0-62.2,0-124.5,0-186.7c0-49.1,0-98.2,0-147.3c0-5.5,0-11,0-16.5c0-1.2,0-2.5,0-3.7c0-0.2,0-0.5,0-0.7c0-0.5,0-0.7,0-1.4
				c0-0.5,0.1-0.9,0.1-1.4c0.2-2.2,0.2-1.8-0.2,1.3c-0.1,0,1.2-4.7,1.3-5.1c1.1-4.3-2.2,3.7,0,0c0.7-1.1,1.3-2.2,1.9-3.4
				c2.1-3.8-3.1,3.1,0-0.1c0.9-0.9,1.7-1.9,2.7-2.8c3.4-3.2,0,0-0.1-0.1c-0.1-0.1,3-1.9,3.3-2.1c4.2-2.3-0.1-0.1-0.1-0.2
				c0-0.2,3.2-1.1,3.8-1.2c0.4-0.1,0.9-0.2,1.3-0.3c2.2-0.4,1.7-0.4-1.4,0.1c0-0.2,3.8-0.2,4.1-0.2c0,0,0,0,0.1,0c0.2,0,0.4,0,0.6,0
				c2.5,0,5,0,7.5,0c33.4,0,66.9,0,100.3,0c57.5,0,114.9,0,172.4,0c63.7,0,127.4,0,191.1,0c52.1,0,104.3,0,156.4,0
				c22.8,0,45.6-0.3,68.4,0c0.5,0,4.2-0.1,4.2,0.2c0.1,0.5-4.8-1.3-0.7,0.1c1,0.3,2.1,0.6,3.2,0.9c4.3,1.1-3.7-2.2,0,0
				c1.1,0.7,2.2,1.3,3.4,1.9c3.8,2.1-3.1-3.1,0.1,0c0.9,0.9,1.9,1.7,2.8,2.7c3.2,3.4,0,0,0.1-0.1c0.1-0.1,1.9,3,2.1,3.3
				c2.3,4.2,0.1-0.1,0.2-0.1c0.2,0,1.1,3.5,1.2,3.8c0.1,0.4,0.2,0.9,0.3,1.3c0.4,2.2,0.4,1.7-0.1-1.4
				C813.7,179.9,813.7,183.7,813.7,184c0.2,10.5,9.1,20.5,20,20c10.7-0.5,20.2-8.8,20-20c-0.6-31.2-25.5-56.3-56.8-56.8
				c-1.5,0-3,0-4.4,0c-11.2,0-22.3,0-33.5,0c-46.5,0-93,0-139.5,0c-63.7,0-127.3,0-191,0c-61.5,0-123,0-184.5,0
				c-41.1,0-82.2,0-123.3,0c-6.9,0-13.7-0.1-20.6,0c-24.9,0.4-46.2,16.1-54.2,39.6c-2.4,6.9-2.7,14.2-2.7,21.4c0,40.3,0,80.7,0,121
				c0,63.7,0,127.5,0,191.2c0,44.7,0,89.4,0,134.1c0,3.1,0,6.1,0,9.2c0.3,24.5,15.4,45.5,38.3,53.9c11.5,4.2,24.4,3.1,36.4,3.1
				c15.5,0,31,0,46.4,0c8.6,0,17.2,0,25.8,0c10.8,0,20-9.2,20-20c0-22.3,0-44.6,0-67c0-43,0-86,0-128.9c0-27.7-0.1-55.3,0-83
				c0-0.6,0-1.2,0-1.9c0-0.3,0-0.5,0-0.7c0-0.9,0.1-1.8,0.2-2.7c0.1-2.7-1.1,3.8-0.1,1.3c0.6-1.5,1.1-3.5,1.4-5.1
				c0.5-2.5-1.9,3.3-0.5,1.2c0.6-0.9,1-1.9,1.5-2.8c-0.1,0.2,1.4-2.2,1.4-2.2c0.4,0.2-2.9,3.2-0.8,1c1.2-1.2,2.4-2.4,3.6-3.6
				c2.7-2.6-0.9,0.9-1,0.8c0,0,1.9-1.2,2.2-1.4c0.7-0.4,1.5-0.8,2.3-1.3c3.6-2.1-4,1.1,0,0c0.3-0.1,5.1-1.5,5.1-1.3
				c0,0.3-5.3,0.3-1.3,0.2c0.9,0,1.8-0.1,2.7-0.1c0.1,0,0.1,0,0.2,0c3.9-0.1,7.8,0,11.7,0c23.1,0,46.2,0,69.3,0
				c37.4,0,74.7,0,112.1,0c43.9,0,87.7,0,131.6,0c42.6,0,85.2,0,127.8,0c33.6,0,67.1,0,100.7,0c17,0,34.1,0,51.1,0
				c0.8,0,1.5,0,2.3,0c10.8,0,20-9.2,20-20c0-20.2,0-40.4,0-60.6c0-32.2,0-64.4,0-96.5c0-7.4,0-14.7,0-22.1c0-10.5-9.2-20.5-20-20
				C822.9,164.5,813.7,172.8,813.7,184z"/><path d="M63.3 290.6c6.9 0 13.8 0 20.6 0 18.7 0 37.5 0 56.2 0 27.6 0 55.1 0 82.7 0 33.8 0 67.5 0 101.3 0 36.8 0 73.6 0 110.5 0 37.3 0 74.7 0 112 0 34.8 0 69.6 0 104.4 0 29.4 0 58.8 0 88.2 0 21.1 0 42.1 0 63.2 0 10 0 20.1.2 30.1 0 .4 0 .9 0 1.3 0 10.5 0 20.5-9.2 20-20-.5-10.8-8.8-20-20-20-6.9 0-13.8 0-20.6 0-18.7 0-37.5 0-56.2 0-27.6 0-55.1 0-82.7 0-33.8 0-67.5 0-101.3 0-36.8 0-73.6 0-110.5 0-37.3 0-74.7 0-112 0-34.8 0-69.6 0-104.4 0-29.4 0-58.8 0-88.2 0-21.1 0-42.1 0-63.2 0-10 0-20.1-.2-30.1 0-.4 0-.9 0-1.3 0-10.5 0-20.5 9.2-20 20C43.8 281.5 52.1 290.6 63.3 290.6L63.3 290.6zM940.7 400c0 25.3 0 50.5 0 75.8 0 54.1 0 108.1 0 162.2 0 50.8 0 101.7 0 152.5 0 14 0 28 0 42.1 0 2.4 0 4.8 0 7.3 0 .5 0 4.2-.2 4.3-.4.1 1.2-5.2.1-1.4-.4 1.2-.7 2.5-1.1 3.8-1.1 4 1.8-2.5.3-.6-.8 1.1-1.6 2.7-2.2 3.9-2 3.6 2.4-2.1.4-.4-.8.7-1.4 1.6-2.2 2.4-.2.2-2.7 2.7-2.9 2.6-.5-.5 3.7-2.4.9-.9-1.1.6-2.3 1.3-3.4 1.9-3.7 2.2 4.2-1.1 0 0-.8.2-1.7.5-2.5.8-.9.2-1.7.4-2.6.6 3.1-.4 3.5-.4 1.3-.2-17.7.2-35.4.1-53.1.1-42.7 0-85.3 0-128 0-55.7 0-111.4 0-167.1 0-55.9 0-111.9 0-167.8 0-43.3 0-86.7 0-130 0-17.9 0-35.8.3-53.6 0-.5 0-.9 0-1.4 0-.5 0-.9-.1-1.4-.1-2.2-.2-1.8-.2 1.3.2 0 .1-3.6-.9-3.9-.9-.3-.1-2.5-.8-2.5-.8 0-.1 4.2 2.1.1-.2-.7-.4-1.5-.9-2.2-1.3-1.8-1.2-1.4-.9.9.9-.7-.5-1.3-1.1-1.9-1.7-.8-.7-1.5-1.5-2.2-2.3-2.9-2.9.7.3.3.5-.2.1-3.3-5.5-3.2-5.6.2-.1 1.5 4.5.2-.1-.1-.3-1-3.9-.9-3.9.3 0 .3 5.3.2 1.3 0-1.1-.1-1.6-.1-2.8 0-1.9 0-3.9 0-5.8 0-13.3 0-26.5 0-39.8 0-50 0-100 0-150 0-54.5 0-109 0-163.5 0-26.9-.4-53.9 0-80.8 0 0 0-.1 0-.1 0-.5-.1.8 0-1.4 0-.5.1-.9.1-1.4.2-2.2.2-1.8-.2 1.3.1 0 1.3-6.4 1.8-6.3.1 0-2.1 4.2.2.1.1-.1 1.9-3.3 2.1-3.3.1.1-3.1 3.5.1.1.7-.8 1.5-1.5 2.3-2.2 2.9-2.9-.3.7-.5.3-.1-.1 3-1.9 3.3-2.1.3-.2 2.3-1.2 2.3-1.2.1.2-4.5 1.5.1.2 1-.3 2.3-.4 3.2-.8 1.5-.3.9-.2-2 .2.9-.1 1.8-.2 2.7-.2 1.6-.1 3.2 0 4.7 0 8.7 0 17.4 0 26 0 37.7 0 75.3 0 113 0 53.7 0 107.5 0 161.2 0 57.1 0 114.1 0 171.2 0 47.5 0 95.1 0 142.6 0 25.2 0 50.4 0 75.6 0 1.3 0 2.6 0 3.9 0 .5 0 .7 0 1.4 0 .5 0 .9.1 1.4.1 1.8.2 1.8.2 0 0-.4-.1-.9-.1-1.3-.2.9.2 1.7.4 2.6.6.3.1 3.8 1 3.8 1.2-.1.6-3.9-2-1.2-.4 1.1.7 2.2 1.3 3.4 1.9 3.8 2.1-3-3.1.1 0 .5.5 4.7 4.3 4.5 4.6-.4.4-2.4-4.1-.5-.4.5.9 1.1 1.9 1.6 2.8 2.2 3.7-1.1-4.2 0 0 .2.8.5 1.7.8 2.5.1.4.2.9.3 1.3.4 2.2.4 1.7-.1-1.4C940.7 395.9 940.7 399.7 940.7 400c.2 10.5 9.1 20.5 20 20 10.7-.5 20.2-8.8 20-20-.5-26.1-18.9-50.8-45.4-55.5-4.8-.9-9.4-1.2-14.2-1.2-8.5 0-17 0-25.5 0-37.7 0-75.5 0-113.2 0-54.7 0-109.4 0-164 0-57.6 0-115.3 0-172.9 0-47.7 0-95.4 0-143.2 0-24.2 0-48.5 0-72.7 0-5.4 0-10.7.4-15.9 1.6-25.4 5.7-43 29.6-43.4 55.2-.1 7.3 0 14.5 0 21.8 0 44.9 0 89.8 0 134.6 0 56.9 0 113.8 0 170.7 0 35.9 0 71.9 0 107.8 0 2.6-.1 5.2.1 7.8 2.1 28.3 23 50.3 51.2 53.6 6 .7 12.2.4 18.2.4 31.8 0 63.6 0 95.4 0 51.7 0 103.4 0 155.1 0 58.1 0 116.2 0 174.2 0 51.5 0 103.1 0 154.6 0 31.1 0 62.1 0 93.2 0 8.8 0 17.6.4 26.3-1.9 24.8-6.5 41.7-29.6 42.1-54.9 0-2.1 0-4.1 0-6.2 0-36.7 0-73.5 0-110.2 0-57 0-114 0-171 0-44.2 0-88.4 0-132.6 0-6.7 0-13.3 0-20 0-10.5-9.2-20.5-20-20C949.9 380.5 940.7 388.8 940.7 400z"/><path d="M300.3 758.8c23.1 0 46.2 0 69.3 0 10.5 0 20.5-9.2 20-20-.5-10.8-8.8-20-20-20-23.1 0-46.2 0-69.3 0-10.5 0-20.5 9.2-20 20C280.8 749.6 289.1 758.8 300.3 758.8L300.3 758.8zM416.6 592.5c-30.2 0-60.4 0-90.6 0-.7 0-1.4 0-2.1 0-.2 0-.4 0-.5 0-2.2.1-1.3.7-.2.2 1.2-.6 1.7.4 0-.1.2 0-2.5-.6-2.6-.8 0-.8 3.9 2.2 1.2.3-3.1-2.2.8.9.9.9-.1.1-2-1.9-1.9-1.8-2.4-2.1 1.5.7.7 1-.1 0-1-1.6-1-1.7-1-2.2 1.1 4.1.2.5 0 .2-.7-2.6-.6-2.6.6-.3.2 4.5.3 1.2 0-.1 0-.1 0-.2 0-.6 0-1.1 0-1.7 0-2.6 0-5.1 0-7.7 0-19 0-37.9 0-56.9 0-7.5 0-15 0-22.5 0-1.4.1-2.9 0-4.3 0-.3.2-1.3 0-1.5.9 1.1-.9 4-.1 1.3-.1.2.6-2.6.8-2.6-.1 0-1.9 4.7-.3 1.2 1.4-2.9-.4 1.6-.9.9-.1-.1 1.9-2 1.8-1.9 2.2-2.4-.9.9-1 .7.1.1 2.2-1.5 2.3-1.3.5.8-4.3 1.2-1.1.5.5-.1 2.4-.4 2.6-.6-.5.4-4.8.2-1.2.3.3 0 .6 0 .9 0 2.1 0 4.2 0 6.3 0 8.3 0 16.6 0 24.8 0 18.3 0 36.7 0 55 0 1.9 0 3.9.1 5.8 0 .5 0 1.7.2 2 0-1.4 1.1-3.9-1-1.3-.1.5.2 2.2.8 2.6.8-.6.1-4.1-2.1-1.2-.3 2.7 1.7-.8-.9-.9-.9.1-.1 1.6 1.6 1.9 1.8 2.9 2.6-1-.8-.7-1-.1 0 1.5 2.2 1.3 2.3-.3.2-1.4-5-.5-1.1.1.5.4 2.3.6 2.6-.2-.3-.1-4-.4-1.9 0 .3 0 .6 0 .9-.1 1.6 0 3.3 0 4.9 0 18 0 35.9 0 53.9 0 8.7 0 17.4 0 26.1 0 2.3 0 4.6 0 6.9 0 .4 0 .9 0 1.4 0 .5-.2 1.3 0 1.5-.4-.4 1.3-4.8.1-1.3-.1.4-.2.9-.4 1.3-.6 1.7-.6 1.7 0 .1.7-.3.9-1.7-.2 0-2 3.3.8-.9.9-.9.1.1-1.6 1.6-1.8 1.9-2.1 2.4.7-1.5 1-.7.1.2-2.4 1.2-2.3 1.3-.2-.3 4.9-1.4 1.1-.5-.6.2-1.3.3-2 .5C413.3 593.5 421.2 592.3 416.6 592.5c-10.4.3-20.5 9-20 20 .5 10.6 8.8 20.3 20 20 23.8-.7 42.3-19.1 42.9-42.9.1-4.8 0-9.6 0-14.4 0-20.8 0-41.5 0-62.3 0-5.5.1-11 0-16.5-.4-19.9-14.4-39.1-34.8-42.3-6.6-1-13-.9-19.6-.9-9.9 0-19.8 0-29.7 0-17.1 0-34.2-.1-51.3 0-18.7.2-35 11.3-41.4 29-2.6 7.3-2.4 14.9-2.4 22.6 0 20.3 0 40.6 0 61 0 7.2 0 14.5 0 21.7 0 15.7 7 30.4 20.7 38.8 8.9 5.4 18.6 6.2 28.6 6.2 8.7 0 17.4 0 26.1 0 19.1 0 38.1 0 57.2 0 1.2 0 2.5 0 3.7 0 10.5 0 20.5-9.2 20-20C436.1 601.6 427.8 592.5 416.6 592.5zM445.6 758.8c23.1 0 46.2 0 69.3 0 10.5 0 20.5-9.2 20-20-.5-10.8-8.8-20-20-20-23.1 0-46.2 0-69.3 0-10.5 0-20.5 9.2-20 20C426.1 749.6 434.4 758.8 445.6 758.8L445.6 758.8zM590.9 759.8c23.1 0 46.2 0 69.3 0 10.5 0 20.5-9.2 20-20-.5-10.8-8.8-20-20-20-23.1 0-46.2 0-69.3 0-10.5 0-20.5 9.2-20 20C571.4 750.6 579.7 759.8 590.9 759.8L590.9 759.8zM736.2 759.8c23.1 0 46.2 0 69.3 0 10.5 0 20.5-9.2 20-20-.5-10.8-8.8-20-20-20-23.1 0-46.2 0-69.3 0-10.5 0-20.5 9.2-20 20C716.7 750.6 725 759.8 736.2 759.8L736.2 759.8z"/></svg>