<svg xmlns="http://www.w3.org/2000/svg" width="64pt" height="64pt" viewBox="0 0 64 64" style="isolation:isolate"><defs><clipPath id="a"><rect width="64" height="64"/></clipPath></defs><g clip-path="url(#a)"><path d="M32.394 2.962L32.394 2.962C21.532 2.962 12.714 12.515 12.714 24.281L12.714 42.321C12.714 44.131 11.675 46.64 10.395 47.92L7.314 51.001C6.674 51.641 6.889 52.16 7.794 52.16L56.993 52.16C57.898 52.16 58.113 51.641 57.473 51.001L54.392 47.92C53.112 46.64 52.073 44.131 52.073 42.321L52.073 24.281C52.073 12.515 43.255 2.962 32.394 2.962zM25.834 55.905L25.834 55.905C25.834 59.269 28.773 62 32.394 62L32.394 62C36.014 62 38.953 59.269 38.953 55.905L38.953 55.905C38.953 55.648 38.729 55.44 38.453 55.44L26.334 55.44C26.058 55.44 25.834 55.648 25.834 55.905z"/></g></svg>