<svg width="63" height="53" viewBox="0 0 63 53" fill="none" xmlns="http://www.w3.org/2000/svg">
<mask id="path-1-inside-1_5_4" fill="white">
<path fill-rule="evenodd" clip-rule="evenodd" d="M6.08231 5.26875L6.09091 5.2647C6.09775 5.26171 6.10951 5.25692 6.12736 5.2508C6.2045 5.22429 6.37581 5.17903 6.71775 5.14063C7.46409 5.05682 8.50534 5.05211 10.25 5.05211H17.3333C19.078 5.05211 20.1192 5.05682 20.8656 5.14063C21.2075 5.17903 21.3788 5.22429 21.4559 5.2508C21.4738 5.25692 21.4855 5.26171 21.4924 5.2647L21.501 5.26875L21.5059 5.27597C21.5095 5.28168 21.5152 5.2915 21.5226 5.30641C21.5543 5.37084 21.6084 5.51391 21.6545 5.79957C21.7548 6.42295 21.7604 7.29273 21.7604 8.75003V20.5833C21.7604 22.0406 21.7548 22.9104 21.6545 23.5337C21.6084 23.8195 21.5543 23.9626 21.5226 24.0268C21.5152 24.0419 21.5095 24.0517 21.5059 24.0573L21.501 24.0647L21.4924 24.0685C21.4855 24.0718 21.4738 24.0765 21.4559 24.0825C21.3788 24.1091 21.2075 24.1543 20.8656 24.1928C20.1192 24.2765 19.078 24.2813 17.3333 24.2813H10.25C8.50534 24.2813 7.46409 24.2765 6.71775 24.1928C6.37581 24.1543 6.2045 24.1091 6.12736 24.0825C6.10951 24.0765 6.09775 24.0718 6.09091 24.0685L6.08231 24.0647L6.07742 24.0573C6.07384 24.0517 6.06811 24.0419 6.06078 24.0268C6.02904 23.9626 5.97489 23.8195 5.92888 23.5337C5.82855 22.9104 5.82292 22.0406 5.82292 20.5833V8.75003C5.82292 7.29273 5.82855 6.42295 5.92888 5.79957C5.97489 5.51391 6.02904 5.37084 6.06078 5.30641C6.06811 5.2915 6.07384 5.28168 6.07742 5.27597L6.08231 5.26875ZM10.0915 0.614584C10.1442 0.614614 10.197 0.614614 10.25 0.614614H17.3333C17.3863 0.614614 17.4391 0.614614 17.4918 0.614584C19.0247 0.614436 20.4302 0.614318 21.5735 0.74271C22.8324 0.884088 24.1631 1.21675 25.2575 2.13094C26.3522 3.04512 26.7503 4.15666 26.9196 5.20828C27.0733 6.16326 27.0733 7.33725 27.0729 8.61764C27.0729 8.66166 27.0729 8.70577 27.0729 8.75003V20.5833C27.0729 20.6277 27.0729 20.6718 27.0729 20.7159C27.0733 21.9962 27.0733 23.1701 26.9196 24.125C26.7503 25.1767 26.3522 26.2882 25.2575 27.2023C24.1631 28.1167 22.8324 28.4492 21.5735 28.5907C20.4301 28.719 19.0247 28.719 17.4918 28.7188C17.4391 28.7188 17.3863 28.7188 17.3333 28.7188H10.25C10.197 28.7188 10.1442 28.7188 10.0915 28.7188C8.55864 28.719 7.15317 28.719 6.00988 28.5907C4.75089 28.4492 3.42021 28.1167 2.32573 27.2023C1.23129 26.2882 0.833027 25.1767 0.663771 24.125C0.510063 23.1701 0.510205 21.9962 0.510417 20.7159C0.510417 20.6718 0.510417 20.6277 0.510417 20.5833V8.75003C0.510417 8.70577 0.510417 8.66163 0.510417 8.61764C0.510205 7.33722 0.510063 6.16326 0.663771 5.20828C0.833027 4.15666 1.23129 3.04512 2.32573 2.13094C3.42021 1.21675 4.75089 0.884088 6.00988 0.74271C7.15317 0.614318 8.55861 0.614436 10.0915 0.614584ZM41.5077 5.2647L41.4988 5.26875L41.4942 5.27597C41.4907 5.28168 41.4847 5.2915 41.4776 5.30641C41.4457 5.37084 41.3915 5.51391 41.3455 5.79957C41.2453 6.42295 41.2396 7.29273 41.2396 8.75003C41.2396 10.2073 41.2453 11.0771 41.3455 11.7005C41.3915 11.9861 41.4457 12.1292 41.4776 12.1936C41.4804 12.1996 41.4854 12.2092 41.4854 12.2092C41.4889 12.2157 41.4942 12.2241 41.4942 12.2241L41.4988 12.2313L41.5077 12.2354C41.5144 12.2383 41.5261 12.2431 41.5442 12.2493C41.621 12.2758 41.7924 12.321 42.1346 12.3594C42.8808 12.4432 43.922 12.4479 45.6667 12.4479H52.75C54.4946 12.4479 55.5359 12.4432 56.2821 12.3594C56.6242 12.321 56.7956 12.2758 56.8725 12.2493C56.8906 12.2431 56.9023 12.2383 56.909 12.2354L56.9178 12.2313L56.9224 12.2241C56.926 12.2183 56.932 12.2086 56.9391 12.1936C56.971 12.1292 57.0252 11.9861 57.0712 11.7005C57.1714 11.0771 57.1771 10.2073 57.1771 8.75003C57.1771 7.29273 57.1714 6.42295 57.0712 5.79957C57.0252 5.51391 56.971 5.37084 56.9391 5.30641C56.932 5.2915 56.926 5.28168 56.9224 5.27597L56.9178 5.26875L56.909 5.2647C56.9023 5.26171 56.8906 5.25692 56.8725 5.2508C56.7956 5.22429 56.6242 5.17903 56.2821 5.14063C55.5359 5.05682 54.4946 5.05211 52.75 5.05211H45.6667C43.922 5.05211 42.8808 5.05682 42.1346 5.14063C41.7924 5.17903 41.621 5.22429 41.5442 5.2508C41.5261 5.25692 41.5144 5.26171 41.5077 5.2647ZM45.5084 0.614584H52.9083C54.4415 0.614436 55.8468 0.614318 56.9901 0.74271C58.2492 0.884088 59.5798 1.21675 60.6741 2.13094C61.7689 3.04512 62.1669 4.15666 62.3362 5.20828C62.4899 6.16326 62.4899 7.33722 62.4896 8.61764V8.88239C62.4899 10.1628 62.4899 11.3368 62.3362 12.2917C62.1669 13.3434 61.7689 14.4549 60.6741 15.3691C59.5798 16.2833 58.2492 16.6159 56.9901 16.7574C55.8468 16.8857 54.4415 16.8856 52.9083 16.8854H45.5084C43.9752 16.8856 42.5698 16.8857 41.4266 16.7574C40.1675 16.6159 38.8369 16.2833 37.7425 15.3691C36.6478 14.4549 36.2497 13.3434 36.0804 12.2917C35.9267 11.3368 35.9267 10.1628 35.9271 8.88239C35.9271 8.8384 35.9271 8.79426 35.9271 8.75003C35.9271 8.70577 35.9271 8.66166 35.9271 8.61764C35.9267 7.33725 35.9267 6.16326 36.0804 5.20828C36.2497 4.15666 36.6478 3.04512 37.7425 2.13094C38.8369 1.21675 40.1675 0.884088 41.4266 0.74271C42.5698 0.614318 43.9752 0.614436 45.5084 0.614584ZM45.5084 24.2813H52.9083C54.4415 24.2813 55.8468 24.281 56.9901 24.4093C58.2492 24.5508 59.5798 24.8833 60.6741 25.7977C61.7689 26.7118 62.1669 27.8233 62.3362 28.875C62.4899 29.8299 62.4899 31.0038 62.4896 32.2844V44.3825C62.4899 45.6629 62.4899 46.8368 62.3362 47.7917C62.1669 48.8434 61.7689 49.9549 60.6741 50.869C59.5798 51.7834 58.2492 52.1159 56.9901 52.2573C55.8468 52.3857 54.4415 52.3857 52.9083 52.3854H45.5084C43.9752 52.3857 42.5698 52.3857 41.4266 52.2573C40.1675 52.1159 38.8369 51.7834 37.7425 50.869C36.6478 49.9549 36.2497 48.8434 36.0804 47.7917C35.9267 46.8368 35.9267 45.6629 35.9271 44.3825V32.4167C35.9271 32.3726 35.9271 32.3282 35.9271 32.2844C35.9267 31.0038 35.9267 29.8299 36.0804 28.875C36.2497 27.8233 36.6478 26.7118 37.7425 25.7977C38.8369 24.8833 40.1675 24.5508 41.4266 24.4093C42.5698 24.281 43.9752 24.2813 45.5084 24.2813ZM41.5077 28.9315L41.4988 28.9353L41.4942 28.9427C41.4907 28.9483 41.4847 28.9581 41.4776 28.9732C41.4457 29.0377 41.3915 29.1805 41.3455 29.4663C41.2453 30.0896 41.2396 30.9594 41.2396 32.4167V44.25C41.2396 45.7073 41.2453 46.577 41.3455 47.2003C41.3915 47.4861 41.4457 47.6293 41.4776 47.6935C41.4847 47.7086 41.4907 47.7183 41.4942 47.724L41.4988 47.7314L41.5077 47.7352C41.5144 47.7385 41.5261 47.7432 41.5442 47.7491C41.621 47.7757 41.7924 47.821 42.1346 47.8595C42.8808 47.9432 43.922 47.9479 45.6667 47.9479H52.75C54.4946 47.9479 55.5359 47.9432 56.2821 47.8595C56.6242 47.821 56.7956 47.7757 56.8725 47.7491C56.8906 47.7432 56.9023 47.7385 56.909 47.7352L56.9178 47.7314L56.9224 47.724C56.926 47.7183 56.932 47.7086 56.9391 47.6935C56.971 47.6293 57.0252 47.4861 57.0712 47.2003C57.1714 46.577 57.1771 45.7073 57.1771 44.25V32.4167C57.1771 30.9594 57.1714 30.0896 57.0712 29.4663C57.0252 29.1805 56.971 29.0377 56.9391 28.9732C56.9348 28.9643 56.9309 28.9572 56.9281 28.9516L56.9224 28.9427L56.9178 28.9353L56.909 28.9315C56.9023 28.9285 56.8906 28.9235 56.8725 28.9176C56.7956 28.8909 56.6242 28.8457 56.2821 28.8072C55.5359 28.7235 54.4946 28.7188 52.75 28.7188H45.6667C43.922 28.7188 42.8808 28.7235 42.1346 28.8072C41.7924 28.8457 41.621 28.8909 41.5442 28.9176C41.5261 28.9235 41.5144 28.9285 41.5077 28.9315ZM6.09091 40.7648L6.08231 40.7686L6.07742 40.776C6.07384 40.7817 6.06811 40.7914 6.06078 40.8065C6.02904 40.871 5.97486 41.0139 5.92888 41.2997C5.82855 41.923 5.82292 42.7927 5.82292 44.25C5.82292 45.7073 5.82855 46.577 5.92888 47.2003C5.97486 47.4861 6.02904 47.6293 6.06078 47.6935C6.06811 47.7086 6.07384 47.7183 6.07742 47.724L6.08231 47.7314L6.09091 47.7352C6.09775 47.7385 6.10951 47.7432 6.12736 47.7491C6.2045 47.7757 6.37581 47.821 6.71775 47.8595C7.46409 47.9432 8.50534 47.9479 10.25 47.9479H17.3333C19.078 47.9479 20.1192 47.9432 20.8656 47.8595C21.2075 47.821 21.3788 47.7757 21.4559 47.7491C21.465 47.7462 21.4785 47.7411 21.4785 47.7411L21.4924 47.7352L21.501 47.7314L21.5059 47.724L21.5111 47.7154C21.5142 47.7098 21.5181 47.7027 21.5226 47.6935C21.5543 47.6293 21.6084 47.4861 21.6545 47.2003C21.7548 46.577 21.7604 45.7073 21.7604 44.25C21.7604 42.7927 21.7548 41.923 21.6545 41.2997C21.6084 41.0139 21.5543 40.871 21.5226 40.8065C21.5152 40.7914 21.5095 40.7817 21.5059 40.776L21.501 40.7686L21.4924 40.7648C21.4855 40.7618 21.4738 40.7568 21.4559 40.7509C21.3788 40.7243 21.2075 40.679 20.8656 40.6405C20.1192 40.5568 19.078 40.5521 17.3333 40.5521H10.25C8.50534 40.5521 7.46409 40.5568 6.71775 40.6405C6.37581 40.679 6.2045 40.7243 6.12736 40.7509C6.10951 40.7568 6.09775 40.7618 6.09091 40.7648ZM10.0915 36.1146H17.4918C19.0247 36.1146 20.4301 36.1143 21.5735 36.2427C22.8324 36.3841 24.1631 36.7166 25.2575 37.631C26.3522 38.5452 26.7503 39.6566 26.9196 40.7083C27.0733 41.6632 27.0733 42.8371 27.0729 44.1178V44.3825C27.0733 45.6629 27.0733 46.8368 26.9196 47.7917C26.7503 48.8434 26.3522 49.9549 25.2575 50.869C24.1631 51.7834 22.8324 52.1159 21.5735 52.2573C20.4301 52.3857 19.0247 52.3857 17.4918 52.3854H10.0915C8.55864 52.3857 7.15317 52.3857 6.00988 52.2573C4.75089 52.1159 3.42021 51.7834 2.32573 50.869C1.23129 49.9549 0.833027 48.8434 0.663771 47.7917C0.510063 46.8368 0.510205 45.6629 0.510417 44.3825V44.1178C0.510205 42.8371 0.510063 41.6632 0.663771 40.7083C0.833027 39.6566 1.23129 38.5452 2.32573 37.631C3.42021 36.7166 4.75089 36.3841 6.00988 36.2427C7.15317 36.1143 8.55864 36.1146 10.0915 36.1146Z"/>
</mask>
<path fill-rule="evenodd" clip-rule="evenodd" d="M6.08231 5.26875L6.09091 5.2647C6.09775 5.26171 6.10951 5.25692 6.12736 5.2508C6.2045 5.22429 6.37581 5.17903 6.71775 5.14063C7.46409 5.05682 8.50534 5.05211 10.25 5.05211H17.3333C19.078 5.05211 20.1192 5.05682 20.8656 5.14063C21.2075 5.17903 21.3788 5.22429 21.4559 5.2508C21.4738 5.25692 21.4855 5.26171 21.4924 5.2647L21.501 5.26875L21.5059 5.27597C21.5095 5.28168 21.5152 5.2915 21.5226 5.30641C21.5543 5.37084 21.6084 5.51391 21.6545 5.79957C21.7548 6.42295 21.7604 7.29273 21.7604 8.75003V20.5833C21.7604 22.0406 21.7548 22.9104 21.6545 23.5337C21.6084 23.8195 21.5543 23.9626 21.5226 24.0268C21.5152 24.0419 21.5095 24.0517 21.5059 24.0573L21.501 24.0647L21.4924 24.0685C21.4855 24.0718 21.4738 24.0765 21.4559 24.0825C21.3788 24.1091 21.2075 24.1543 20.8656 24.1928C20.1192 24.2765 19.078 24.2813 17.3333 24.2813H10.25C8.50534 24.2813 7.46409 24.2765 6.71775 24.1928C6.37581 24.1543 6.2045 24.1091 6.12736 24.0825C6.10951 24.0765 6.09775 24.0718 6.09091 24.0685L6.08231 24.0647L6.07742 24.0573C6.07384 24.0517 6.06811 24.0419 6.06078 24.0268C6.02904 23.9626 5.97489 23.8195 5.92888 23.5337C5.82855 22.9104 5.82292 22.0406 5.82292 20.5833V8.75003C5.82292 7.29273 5.82855 6.42295 5.92888 5.79957C5.97489 5.51391 6.02904 5.37084 6.06078 5.30641C6.06811 5.2915 6.07384 5.28168 6.07742 5.27597L6.08231 5.26875ZM10.0915 0.614584C10.1442 0.614614 10.197 0.614614 10.25 0.614614H17.3333C17.3863 0.614614 17.4391 0.614614 17.4918 0.614584C19.0247 0.614436 20.4302 0.614318 21.5735 0.74271C22.8324 0.884088 24.1631 1.21675 25.2575 2.13094C26.3522 3.04512 26.7503 4.15666 26.9196 5.20828C27.0733 6.16326 27.0733 7.33725 27.0729 8.61764C27.0729 8.66166 27.0729 8.70577 27.0729 8.75003V20.5833C27.0729 20.6277 27.0729 20.6718 27.0729 20.7159C27.0733 21.9962 27.0733 23.1701 26.9196 24.125C26.7503 25.1767 26.3522 26.2882 25.2575 27.2023C24.1631 28.1167 22.8324 28.4492 21.5735 28.5907C20.4301 28.719 19.0247 28.719 17.4918 28.7188C17.4391 28.7188 17.3863 28.7188 17.3333 28.7188H10.25C10.197 28.7188 10.1442 28.7188 10.0915 28.7188C8.55864 28.719 7.15317 28.719 6.00988 28.5907C4.75089 28.4492 3.42021 28.1167 2.32573 27.2023C1.23129 26.2882 0.833027 25.1767 0.663771 24.125C0.510063 23.1701 0.510205 21.9962 0.510417 20.7159C0.510417 20.6718 0.510417 20.6277 0.510417 20.5833V8.75003C0.510417 8.70577 0.510417 8.66163 0.510417 8.61764C0.510205 7.33722 0.510063 6.16326 0.663771 5.20828C0.833027 4.15666 1.23129 3.04512 2.32573 2.13094C3.42021 1.21675 4.75089 0.884088 6.00988 0.74271C7.15317 0.614318 8.55861 0.614436 10.0915 0.614584ZM41.5077 5.2647L41.4988 5.26875L41.4942 5.27597C41.4907 5.28168 41.4847 5.2915 41.4776 5.30641C41.4457 5.37084 41.3915 5.51391 41.3455 5.79957C41.2453 6.42295 41.2396 7.29273 41.2396 8.75003C41.2396 10.2073 41.2453 11.0771 41.3455 11.7005C41.3915 11.9861 41.4457 12.1292 41.4776 12.1936C41.4804 12.1996 41.4854 12.2092 41.4854 12.2092C41.4889 12.2157 41.4942 12.2241 41.4942 12.2241L41.4988 12.2313L41.5077 12.2354C41.5144 12.2383 41.5261 12.2431 41.5442 12.2493C41.621 12.2758 41.7924 12.321 42.1346 12.3594C42.8808 12.4432 43.922 12.4479 45.6667 12.4479H52.75C54.4946 12.4479 55.5359 12.4432 56.2821 12.3594C56.6242 12.321 56.7956 12.2758 56.8725 12.2493C56.8906 12.2431 56.9023 12.2383 56.909 12.2354L56.9178 12.2313L56.9224 12.2241C56.926 12.2183 56.932 12.2086 56.9391 12.1936C56.971 12.1292 57.0252 11.9861 57.0712 11.7005C57.1714 11.0771 57.1771 10.2073 57.1771 8.75003C57.1771 7.29273 57.1714 6.42295 57.0712 5.79957C57.0252 5.51391 56.971 5.37084 56.9391 5.30641C56.932 5.2915 56.926 5.28168 56.9224 5.27597L56.9178 5.26875L56.909 5.2647C56.9023 5.26171 56.8906 5.25692 56.8725 5.2508C56.7956 5.22429 56.6242 5.17903 56.2821 5.14063C55.5359 5.05682 54.4946 5.05211 52.75 5.05211H45.6667C43.922 5.05211 42.8808 5.05682 42.1346 5.14063C41.7924 5.17903 41.621 5.22429 41.5442 5.2508C41.5261 5.25692 41.5144 5.26171 41.5077 5.2647ZM45.5084 0.614584H52.9083C54.4415 0.614436 55.8468 0.614318 56.9901 0.74271C58.2492 0.884088 59.5798 1.21675 60.6741 2.13094C61.7689 3.04512 62.1669 4.15666 62.3362 5.20828C62.4899 6.16326 62.4899 7.33722 62.4896 8.61764V8.88239C62.4899 10.1628 62.4899 11.3368 62.3362 12.2917C62.1669 13.3434 61.7689 14.4549 60.6741 15.3691C59.5798 16.2833 58.2492 16.6159 56.9901 16.7574C55.8468 16.8857 54.4415 16.8856 52.9083 16.8854H45.5084C43.9752 16.8856 42.5698 16.8857 41.4266 16.7574C40.1675 16.6159 38.8369 16.2833 37.7425 15.3691C36.6478 14.4549 36.2497 13.3434 36.0804 12.2917C35.9267 11.3368 35.9267 10.1628 35.9271 8.88239C35.9271 8.8384 35.9271 8.79426 35.9271 8.75003C35.9271 8.70577 35.9271 8.66166 35.9271 8.61764C35.9267 7.33725 35.9267 6.16326 36.0804 5.20828C36.2497 4.15666 36.6478 3.04512 37.7425 2.13094C38.8369 1.21675 40.1675 0.884088 41.4266 0.74271C42.5698 0.614318 43.9752 0.614436 45.5084 0.614584ZM45.5084 24.2813H52.9083C54.4415 24.2813 55.8468 24.281 56.9901 24.4093C58.2492 24.5508 59.5798 24.8833 60.6741 25.7977C61.7689 26.7118 62.1669 27.8233 62.3362 28.875C62.4899 29.8299 62.4899 31.0038 62.4896 32.2844V44.3825C62.4899 45.6629 62.4899 46.8368 62.3362 47.7917C62.1669 48.8434 61.7689 49.9549 60.6741 50.869C59.5798 51.7834 58.2492 52.1159 56.9901 52.2573C55.8468 52.3857 54.4415 52.3857 52.9083 52.3854H45.5084C43.9752 52.3857 42.5698 52.3857 41.4266 52.2573C40.1675 52.1159 38.8369 51.7834 37.7425 50.869C36.6478 49.9549 36.2497 48.8434 36.0804 47.7917C35.9267 46.8368 35.9267 45.6629 35.9271 44.3825V32.4167C35.9271 32.3726 35.9271 32.3282 35.9271 32.2844C35.9267 31.0038 35.9267 29.8299 36.0804 28.875C36.2497 27.8233 36.6478 26.7118 37.7425 25.7977C38.8369 24.8833 40.1675 24.5508 41.4266 24.4093C42.5698 24.281 43.9752 24.2813 45.5084 24.2813ZM41.5077 28.9315L41.4988 28.9353L41.4942 28.9427C41.4907 28.9483 41.4847 28.9581 41.4776 28.9732C41.4457 29.0377 41.3915 29.1805 41.3455 29.4663C41.2453 30.0896 41.2396 30.9594 41.2396 32.4167V44.25C41.2396 45.7073 41.2453 46.577 41.3455 47.2003C41.3915 47.4861 41.4457 47.6293 41.4776 47.6935C41.4847 47.7086 41.4907 47.7183 41.4942 47.724L41.4988 47.7314L41.5077 47.7352C41.5144 47.7385 41.5261 47.7432 41.5442 47.7491C41.621 47.7757 41.7924 47.821 42.1346 47.8595C42.8808 47.9432 43.922 47.9479 45.6667 47.9479H52.75C54.4946 47.9479 55.5359 47.9432 56.2821 47.8595C56.6242 47.821 56.7956 47.7757 56.8725 47.7491C56.8906 47.7432 56.9023 47.7385 56.909 47.7352L56.9178 47.7314L56.9224 47.724C56.926 47.7183 56.932 47.7086 56.9391 47.6935C56.971 47.6293 57.0252 47.4861 57.0712 47.2003C57.1714 46.577 57.1771 45.7073 57.1771 44.25V32.4167C57.1771 30.9594 57.1714 30.0896 57.0712 29.4663C57.0252 29.1805 56.971 29.0377 56.9391 28.9732C56.9348 28.9643 56.9309 28.9572 56.9281 28.9516L56.9224 28.9427L56.9178 28.9353L56.909 28.9315C56.9023 28.9285 56.8906 28.9235 56.8725 28.9176C56.7956 28.8909 56.6242 28.8457 56.2821 28.8072C55.5359 28.7235 54.4946 28.7188 52.75 28.7188H45.6667C43.922 28.7188 42.8808 28.7235 42.1346 28.8072C41.7924 28.8457 41.621 28.8909 41.5442 28.9176C41.5261 28.9235 41.5144 28.9285 41.5077 28.9315ZM6.09091 40.7648L6.08231 40.7686L6.07742 40.776C6.07384 40.7817 6.06811 40.7914 6.06078 40.8065C6.02904 40.871 5.97486 41.0139 5.92888 41.2997C5.82855 41.923 5.82292 42.7927 5.82292 44.25C5.82292 45.7073 5.82855 46.577 5.92888 47.2003C5.97486 47.4861 6.02904 47.6293 6.06078 47.6935C6.06811 47.7086 6.07384 47.7183 6.07742 47.724L6.08231 47.7314L6.09091 47.7352C6.09775 47.7385 6.10951 47.7432 6.12736 47.7491C6.2045 47.7757 6.37581 47.821 6.71775 47.8595C7.46409 47.9432 8.50534 47.9479 10.25 47.9479H17.3333C19.078 47.9479 20.1192 47.9432 20.8656 47.8595C21.2075 47.821 21.3788 47.7757 21.4559 47.7491C21.465 47.7462 21.4785 47.7411 21.4785 47.7411L21.4924 47.7352L21.501 47.7314L21.5059 47.724L21.5111 47.7154C21.5142 47.7098 21.5181 47.7027 21.5226 47.6935C21.5543 47.6293 21.6084 47.4861 21.6545 47.2003C21.7548 46.577 21.7604 45.7073 21.7604 44.25C21.7604 42.7927 21.7548 41.923 21.6545 41.2997C21.6084 41.0139 21.5543 40.871 21.5226 40.8065C21.5152 40.7914 21.5095 40.7817 21.5059 40.776L21.501 40.7686L21.4924 40.7648C21.4855 40.7618 21.4738 40.7568 21.4559 40.7509C21.3788 40.7243 21.2075 40.679 20.8656 40.6405C20.1192 40.5568 19.078 40.5521 17.3333 40.5521H10.25C8.50534 40.5521 7.46409 40.5568 6.71775 40.6405C6.37581 40.679 6.2045 40.7243 6.12736 40.7509C6.10951 40.7568 6.09775 40.7618 6.09091 40.7648ZM10.0915 36.1146H17.4918C19.0247 36.1146 20.4301 36.1143 21.5735 36.2427C22.8324 36.3841 24.1631 36.7166 25.2575 37.631C26.3522 38.5452 26.7503 39.6566 26.9196 40.7083C27.0733 41.6632 27.0733 42.8371 27.0729 44.1178V44.3825C27.0733 45.6629 27.0733 46.8368 26.9196 47.7917C26.7503 48.8434 26.3522 49.9549 25.2575 50.869C24.1631 51.7834 22.8324 52.1159 21.5735 52.2573C20.4301 52.3857 19.0247 52.3857 17.4918 52.3854H10.0915C8.55864 52.3857 7.15317 52.3857 6.00988 52.2573C4.75089 52.1159 3.42021 51.7834 2.32573 50.869C1.23129 49.9549 0.833027 48.8434 0.663771 47.7917C0.510063 46.8368 0.510205 45.6629 0.510417 44.3825V44.1178C0.510205 42.8371 0.510063 41.6632 0.663771 40.7083C0.833027 39.6566 1.23129 38.5452 2.32573 37.631C3.42021 36.7166 4.75089 36.3841 6.00988 36.2427C7.15317 36.1143 8.55864 36.1146 10.0915 36.1146Z" stroke="black" stroke-width="6" mask="url(#path-1-inside-1_5_4)"/>
</svg>
