<svg xmlns="http://www.w3.org/2000/svg" xmlns:xlink="http://www.w3.org/1999/xlink" width="478.53" height="456.579" viewBox="0 0 478.53 456.579"><defs><linearGradient id="a" x1="0.5" y1="0.377" x2="0.518" y2="0.377" gradientUnits="objectBoundingBox"><stop offset="0" stop-color="#ffc107"/><stop offset="1" stop-color="#eceff1"/></linearGradient></defs><g transform="translate(0 -10.975)"><path d="M477.8,184.279a15,15,0,0,0-12.108-10.209L318.528,152.686,252.716,19.336a15,15,0,0,0-26.9,0L160,152.686,12.843,174.07a15,15,0,0,0-8.312,25.585l106.484,103.8L85.877,450.018a15,15,0,0,0,21.765,15.813l131.623-69.2,131.623,69.2a15,15,0,0,0,21.765-15.812L367.515,303.454,474,199.656A15,15,0,0,0,477.8,184.279Z" fill="url(#a)"/></g></svg>